#!OML:ASF G:\JayActor3\Patient Classification 1\Patient 1\Session 5\male.ASF
:FULLY-SPECIFIED
:DEGREES
671
root 11.7841 16.7719 -4.23538 -426.281 84.2658 -424.631
lowerback 0.877191 -0.419744 4.7975
upperback 1.31361 -0.534625 0.345368
thorax 0.817374 -0.220183 -2.33277
lowerneck -7.84915 0.249218 2.3958
upperneck 13.2409 -0.0575449 1.28939
head 5.27927 0.22157 0.00877714
rclavicle -2.11209e-015 1.27222e-014
rhumerus -31.7353 -3.21642 -88.5072
rradius 29.6873
rwrist 0.605048
rhand -18.6302 -8.48504
rfingers 7.12502
rthumb 7.66205 -38.3262
lclavicle -2.11209e-015 1.27222e-014
lhumerus -30.375 1.65397 84.1087
lradius 28.4031
lwrist 18.4709
lhand -17.6167 12.7815
lfingers 7.12502
lthumb 8.64023 42.5847
rfemur 9.10956 1.89486 31.2842
rtibia 20.7705
rfoot -20.4105 -5.76741
rtoes 5.784
lfemur -19.7319 9.09922 -15.7235
ltibia 18.5161
lfoot 5.14934 0.523999
ltoes 1.97547
672
root 11.6832 16.7709 -4.21349 -427.748 84.234 -426.109
lowerback 1.01375 -0.423802 4.82421
upperback 1.32734 -0.531782 0.373423
thorax 0.755148 -0.219507 -2.31791
lowerneck -7.83339 0.229842 2.395
upperneck 13.1541 -0.0886503 1.33089
head 5.24957 0.207399 0.0195397
rclavicle 1.0871e-015 5.96354e-015
rhumerus -31.702 -3.25878 -88.4661
rradius 29.5739
rwrist 0.703604
rhand -18.6207 -8.4802
rfingers 7.12502
rthumb 7.67123 -38.3211
lclavicle 1.0871e-015 5.96354e-015
lhumerus -30.2745 1.57267 84.0968
lradius 28.4243
lwrist 18.4601
lhand -17.6247 12.7824
lfingers 7.12502
lthumb 8.63254 42.5859
rfemur 8.67754 1.79877 31.486
rtibia 20.8607
rfoot -20.5415 -5.85053
rtoes 6.28431
lfemur -20.1136 9.17967 -15.5006
ltibia 18.4666
lfoot 5.56507 0.393041
ltoes 1.18536
673
root 11.5834 16.7696 -4.19204 -429.141 84.1981 -427.508
lowerback 1.14016 -0.428806 4.84725
upperback 1.34672 -0.53082 0.402204
thorax 0.704322 -0.21943 -2.30035
lowerneck -7.83065 0.214329 2.39933
upperneck 13.0818 -0.114639 1.36458
head 5.22661 0.195714 0.0274282
rclavicle -4.63417e-015 -1.98785e-015
rhumerus -31.6561 -3.29791 -88.4199
rradius 29.4406
rwrist 0.816688
rhand -18.6123 -8.47478
rfingers 7.12502
rthumb 7.67937 -38.3153
lclavicle -4.63417e-015 -1.98785e-015
lhumerus -30.1775 1.52108 84.0738
lradius 28.4298
lwrist 18.4379
lhand -17.6416 12.7867
lfingers 7.12502
lthumb 8.61624 42.5909
rfemur 8.23657 1.71574 31.694
rtibia 20.9776
rfoot -20.6781 -5.96702
rtoes 6.81979
lfemur -20.4823 9.27984 -15.2761
ltibia 18.4349
lfoot 5.85218 0.18269
ltoes -0.0893575
674
root 11.4853 16.7679 -4.17135 -430.53 84.1554 -428.898
lowerback 1.25778 -0.441998 4.87333
upperback 1.37259 -0.541273 0.435739
thorax 0.664265 -0.224644 -2.27961
lowerneck -7.85105 0.207518 2.40072
upperneck 13.0272 -0.128747 1.39273
head 5.21313 0.18963 0.0349288
rclavicle 1.04362e-015 -5.1684e-015
rhumerus -31.5935 -3.31948 -88.3697
rradius 29.2899
rwrist 0.937141
rhand -18.6073 -8.47103
rfingers 7.12502
rthumb 7.68419 -38.3114
lclavicle 1.04362e-015 -5.1684e-015
lhumerus -30.0858 1.51106 84.04
lradius 28.4196
lwrist 18.4106
lhand -17.6723 12.7824
lfingers 7.12502
lthumb 8.58657 42.5878
rfemur 7.7975 1.63132 31.9076
rtibia 21.1054
rfoot -20.8187 -6.0983
rtoes 7.4096
lfemur -20.8482 9.39278 -15.0465
ltibia 18.448
lfoot 5.97547 -0.139368
ltoes -1.90821
675
root 11.389 16.7662 -4.15153 -431.962 84.1087 -430.323
lowerback 1.36815 -0.460627 4.90645
upperback 1.40126 -0.559282 0.469359
thorax 0.630552 -0.233359 -2.26268
lowerneck -7.87734 0.203773 2.40889
upperneck 12.9842 -0.138723 1.41265
head 5.20426 0.185578 0.0390652
rclavicle -1.36664e-015 -2.38542e-015
rhumerus -31.5274 -3.35343 -88.3102
rradius 29.1284
rwrist 1.08096
rhand -18.6038 -8.46751
rfingers 7.12502
rthumb 7.6876 -38.3078
lclavicle -1.36664e-015 -2.38542e-015
lhumerus -30.0115 1.51891 83.9968
lradius 28.3992
lwrist 18.3798
lhand -17.7088 12.7652
lfingers 7.12502
lthumb 8.55132 42.5721
rfemur 7.37143 1.53905 32.1226
rtibia 21.2317
rfoot -20.9571 -6.24281
rtoes 8.0297
lfemur -21.2096 9.50148 -14.8147
ltibia 18.5327
lfoot 5.90416 -0.586411
ltoes -4.24503
